<svg version="1" xmlns="http://www.w3.org/2000/svg" width="933.333" height="933.333" viewBox="0 0 700.000000 700.000000"><path d="M404.8 88.9c-4.8 2.4-6.6 5.6-10.3 18.6-1.8 6.6-5.9 20.8-9 31.5-3.1 10.7-6.3 21.7-7.1 24.5-.8 2.7-1.6 5.7-1.8 6.5-.6 2.2-12.4 43-13.5 46.5-.6 1.6-2.3 7.7-4 13.5-1.6 5.8-7.3 25.6-12.6 44-5.4 18.4-10.2 35.1-10.7 37-1.3 5.1-4.2 15.1-17.8 61.5-3.4 11.5-6.3 21.7-6.5 22.5-.2.8-4.5 15.7-9.5 33-5.1 17.3-10 34.4-11 38-1 3.6-3.8 13.5-6.3 22-18 61.5-29.7 103.3-29.7 106 0 4.3 2.7 8.6 6.5 10.4 4.9 2.3 25.5 7.8 29.2 7.8 3.8 0 7.5-2.1 9.8-5.6.8-1.2 3.1-7.9 5.1-14.7 1.9-6.8 3.9-13.8 4.5-15.4 1.1-3.6 14.8-50.7 15.9-55 1.2-4.9 17.8-62.4 20-69.5 1.1-3.6 4-13.5 6.4-22 6.6-22.9 18.9-65.4 26.3-91 7.8-26.9 9.3-32 9.8-34 .2-.8 4.5-15.7 9.5-33 5.1-17.3 9.5-32.9 10-34.5.4-1.7 4.2-14.8 8.4-29.3 4.2-14.4 11-38 15.2-52.5 4.1-14.4 8.9-30.6 10.5-36.1 3.5-12 3.7-17.1.6-20.6-3-3.3-5.4-4.4-17.2-7.6-15.5-4.2-17.1-4.4-20.7-2.5zM187.3 160.1C183 161.3 1.1 343 .8 346.3c-.1 1.2-.2 3.3-.3 4.7-.1 1.4.9 4 2.2 5.7 5.1 7 180.8 181.6 184 183 3.4 1.4 6.7 1.2 10-.5 2.2-1.2 21.5-20.6 23.9-24 1.9-2.7 2.1-8 .4-11.3-.7-1.3-35.2-36.5-76.8-78.1L68.5 350l76.6-76.7c82.2-82.4 79.1-78.8 76.5-86.3-1.4-3.9-22-24.8-26.3-26.6-3.6-1.6-3.6-1.6-8-.3zM505.2 160.3c-1.8.7-7.8 5.7-13.3 11.1-10.9 10.9-13.6 14.1-13.9 17.1-.8 7.4-3.9 4 76.7 84.7l76.8 76.8-76.7 76.7c-81.1 81.2-78.5 78.3-76.6 85.6.8 3.1-.1 2.1 14.2 16.5 11.9 12 14.6 13.5 20.8 10.9 3.3-1.4 181-178 184.6-183.4 2.2-3.4 2.5-6 1.1-10-1.4-4.4-180.6-183.9-185.6-185.9-3.8-1.6-3.8-1.6-8.1-.1z"/></svg>